<svg xmlns="http://www.w3.org/2000/svg" xmlns:xlink="http://www.w3.org/1999/xlink" width="151" zoomAndPan="magnify" viewBox="0 0 113.25 113.249998" height="151" preserveAspectRatio="xMidYMid meet" version="1.0"><defs><g/><clipPath id="8599837845"><path d="M 12.050781 45.765625 L 39.617188 45.765625 L 39.617188 66.628906 L 12.050781 66.628906 Z M 12.050781 45.765625 " clip-rule="nonzero"/></clipPath><clipPath id="1b7c35034c"><path d="M 18 51 L 34 51 L 34 62 L 18 62 Z M 18 51 " clip-rule="nonzero"/></clipPath><clipPath id="eff2fbd147"><path d="M 20.785156 47.707031 L 34.488281 51.265625 L 31.304688 63.523438 L 17.601562 59.96875 Z M 20.785156 47.707031 " clip-rule="nonzero"/></clipPath><clipPath id="622d88fc0e"><path d="M 20.785156 47.707031 L 34.488281 51.265625 L 31.304688 63.523438 L 17.601562 59.96875 Z M 20.785156 47.707031 " clip-rule="nonzero"/></clipPath><clipPath id="f56ffa66ba"><path d="M 0.300781 1 L 4 1 L 4 5 L 0.300781 5 Z M 0.300781 1 " clip-rule="nonzero"/></clipPath><clipPath id="1985dba255"><rect x="0" width="45" y="0" height="7"/></clipPath></defs><g clip-path="url(#8599837845)"><path fill="#dc2626" d="M 47.214844 60.992188 C 46.976562 61.226562 46.84375 61.363281 46.605469 61.597656 C 46.371094 61.363281 46.238281 61.226562 46 60.992188 L 46 51.644531 C 46.238281 51.410156 46.371094 51.273438 46.605469 51.039062 C 46.84375 51.273438 46.976562 51.410156 47.214844 51.644531 Z M 59.832031 65 C 59.832031 64.6875 60.085938 64.433594 60.398438 64.433594 L 60.398438 63.984375 C 60.085938 63.984375 59.832031 63.730469 59.832031 63.417969 C 59.832031 63.105469 60.085938 62.851562 60.398438 62.851562 L 60.398438 62.402344 C 60.085938 62.402344 59.832031 62.148438 59.832031 61.835938 C 59.832031 61.519531 60.085938 61.265625 60.398438 61.265625 L 60.398438 60.816406 C 60.085938 60.816406 59.832031 60.5625 59.832031 60.25 C 59.832031 59.9375 60.085938 59.683594 60.398438 59.683594 L 60.398438 59.203125 C 58.804688 59.203125 57.515625 57.910156 57.515625 56.320312 C 57.515625 54.726562 58.804688 53.433594 60.398438 53.433594 L 60.398438 52.953125 C 60.085938 52.953125 59.832031 52.699219 59.832031 52.386719 C 59.832031 52.074219 60.085938 51.820312 60.398438 51.820312 L 60.398438 51.371094 C 60.085938 51.371094 59.832031 51.117188 59.832031 50.804688 C 59.832031 50.492188 60.085938 50.238281 60.398438 50.238281 L 60.398438 49.789062 C 60.085938 49.789062 59.832031 49.535156 59.832031 49.21875 C 59.832031 48.90625 60.085938 48.652344 60.398438 48.652344 L 60.398438 48.203125 C 60.085938 48.203125 59.832031 47.949219 59.832031 47.636719 C 59.832031 47.328125 60.078125 47.078125 60.382812 47.070312 C 60.285156 46.335938 59.65625 45.765625 58.894531 45.765625 L 49.492188 45.765625 C 49.492188 47.359375 48.199219 48.652344 46.605469 48.652344 C 45.015625 48.652344 43.722656 47.359375 43.722656 45.765625 L 13.554688 45.765625 C 12.792969 45.765625 12.164062 46.335938 12.066406 47.070312 C 12.371094 47.078125 12.617188 47.328125 12.617188 47.636719 C 12.617188 47.949219 12.363281 48.203125 12.050781 48.203125 L 12.050781 48.652344 C 12.363281 48.652344 12.617188 48.90625 12.617188 49.21875 C 12.617188 49.535156 12.363281 49.789062 12.050781 49.789062 L 12.050781 50.238281 C 12.363281 50.238281 12.617188 50.492188 12.617188 50.804688 C 12.617188 51.117188 12.363281 51.371094 12.050781 51.371094 L 12.050781 51.820312 C 12.363281 51.820312 12.617188 52.074219 12.617188 52.386719 C 12.617188 52.699219 12.363281 52.953125 12.050781 52.953125 L 12.050781 53.433594 C 13.644531 53.433594 14.933594 54.726562 14.933594 56.320312 C 14.933594 57.910156 13.644531 59.203125 12.050781 59.203125 L 12.050781 59.683594 C 12.363281 59.683594 12.617188 59.9375 12.617188 60.25 C 12.617188 60.5625 12.363281 60.816406 12.050781 60.816406 L 12.050781 61.265625 C 12.363281 61.265625 12.617188 61.519531 12.617188 61.835938 C 12.617188 62.148438 12.363281 62.402344 12.050781 62.402344 L 12.050781 62.851562 C 12.363281 62.851562 12.617188 63.105469 12.617188 63.417969 C 12.617188 63.730469 12.363281 63.984375 12.050781 63.984375 L 12.050781 64.433594 C 12.363281 64.433594 12.617188 64.6875 12.617188 65 C 12.617188 65.308594 12.371094 65.558594 12.066406 65.566406 C 12.164062 66.300781 12.792969 66.871094 13.554688 66.871094 L 43.722656 66.871094 C 43.722656 65.277344 45.015625 63.988281 46.605469 63.988281 C 48.199219 63.988281 49.492188 65.277344 49.492188 66.871094 L 58.894531 66.871094 C 59.65625 66.871094 60.285156 66.300781 60.382812 65.566406 C 60.078125 65.558594 59.832031 65.308594 59.832031 65 " fill-opacity="1" fill-rule="nonzero"/></g><g clip-path="url(#1b7c35034c)"><g clip-path="url(#eff2fbd147)"><g clip-path="url(#622d88fc0e)"><path fill="#ffffff" d="M 22.433594 61.375 C 22.199219 61.3125 22 61.167969 21.878906 60.964844 L 19.046875 55.976562 C 18.769531 55.539062 18.902344 54.960938 19.351562 54.683594 C 19.789062 54.402344 20.367188 54.539062 20.644531 54.988281 L 22.953125 57.746094 C 23.078125 57.933594 23.335938 57.96875 23.515625 57.828125 L 32.382812 51.277344 C 32.78125 50.957031 33.378906 51.015625 33.695312 51.429688 C 34.019531 51.828125 33.957031 52.425781 33.542969 52.746094 L 23.253906 61.195312 C 23.039062 61.359375 22.769531 61.429688 22.511719 61.378906 C 22.480469 61.386719 22.464844 61.382812 22.433594 61.375 Z M 22.433594 61.375 " fill-opacity="1" fill-rule="nonzero"/></g></g></g><g fill="#ffffff" fill-opacity="1"><g transform="translate(44.741569, 56.989163)"><g><path d="M 5.3125 -6.5625 L 5.3125 -5.28125 L 3.5625 -5.28125 L 3.5625 0 L 1.96875 0 L 1.96875 -5.28125 L 0.21875 -5.28125 L 0.21875 -6.5625 Z M 5.3125 -6.5625 "/></g></g></g><g fill="#ffffff" fill-opacity="1"><g transform="translate(50.273264, 56.989163)"><g><path d="M 1.390625 -5.765625 C 1.109375 -5.765625 0.878906 -5.847656 0.703125 -6.015625 C 0.523438 -6.179688 0.4375 -6.382812 0.4375 -6.625 C 0.4375 -6.875 0.523438 -7.082031 0.703125 -7.25 C 0.878906 -7.414062 1.109375 -7.5 1.390625 -7.5 C 1.660156 -7.5 1.882812 -7.414062 2.0625 -7.25 C 2.238281 -7.082031 2.328125 -6.875 2.328125 -6.625 C 2.328125 -6.382812 2.238281 -6.179688 2.0625 -6.015625 C 1.882812 -5.847656 1.660156 -5.765625 1.390625 -5.765625 Z M 2.1875 -5.21875 L 2.1875 0 L 0.578125 0 L 0.578125 -5.21875 Z M 2.1875 -5.21875 "/></g></g></g><g fill="#ffffff" fill-opacity="1"><g transform="translate(53.034439, 56.989163)"><g><path d="M 0.265625 -2.609375 C 0.265625 -3.148438 0.375 -3.625 0.59375 -4.03125 C 0.8125 -4.4375 1.117188 -4.75 1.515625 -4.96875 C 1.910156 -5.1875 2.363281 -5.296875 2.875 -5.296875 C 3.53125 -5.296875 4.078125 -5.125 4.515625 -4.78125 C 4.960938 -4.4375 5.253906 -3.953125 5.390625 -3.328125 L 3.6875 -3.328125 C 3.539062 -3.734375 3.265625 -3.9375 2.859375 -3.9375 C 2.566406 -3.9375 2.332031 -3.820312 2.15625 -3.59375 C 1.976562 -3.363281 1.890625 -3.035156 1.890625 -2.609375 C 1.890625 -2.179688 1.976562 -1.851562 2.15625 -1.625 C 2.332031 -1.40625 2.566406 -1.296875 2.859375 -1.296875 C 3.265625 -1.296875 3.539062 -1.492188 3.6875 -1.890625 L 5.390625 -1.890625 C 5.253906 -1.273438 4.960938 -0.789062 4.515625 -0.4375 C 4.078125 -0.09375 3.53125 0.078125 2.875 0.078125 C 2.363281 0.078125 1.910156 -0.03125 1.515625 -0.25 C 1.117188 -0.46875 0.8125 -0.78125 0.59375 -1.1875 C 0.375 -1.59375 0.265625 -2.066406 0.265625 -2.609375 Z M 0.265625 -2.609375 "/></g></g></g><g fill="#ffffff" fill-opacity="1"><g transform="translate(58.697182, 56.989163)"><g><path d="M 3.765625 0 L 2.1875 -2.1875 L 2.1875 0 L 0.578125 0 L 0.578125 -6.921875 L 2.1875 -6.921875 L 2.1875 -3.09375 L 3.765625 -5.21875 L 5.734375 -5.21875 L 3.5625 -2.609375 L 5.75 0 Z M 3.765625 0 "/></g></g></g><g fill="#ffffff" fill-opacity="1"><g transform="translate(64.481593, 56.989163)"><g><path d="M 2.953125 0.0625 C 2.472656 0.0625 2.039062 -0.015625 1.65625 -0.171875 C 1.28125 -0.328125 0.976562 -0.554688 0.75 -0.859375 C 0.519531 -1.160156 0.398438 -1.53125 0.390625 -1.96875 L 2.09375 -1.96875 C 2.125 -1.71875 2.207031 -1.53125 2.34375 -1.40625 C 2.488281 -1.28125 2.675781 -1.21875 2.90625 -1.21875 C 3.144531 -1.21875 3.332031 -1.269531 3.46875 -1.375 C 3.601562 -1.488281 3.671875 -1.640625 3.671875 -1.828125 C 3.671875 -1.992188 3.613281 -2.128906 3.5 -2.234375 C 3.394531 -2.335938 3.265625 -2.425781 3.109375 -2.5 C 2.953125 -2.570312 2.726562 -2.648438 2.4375 -2.734375 C 2.007812 -2.859375 1.660156 -2.988281 1.390625 -3.125 C 1.117188 -3.257812 0.882812 -3.453125 0.6875 -3.703125 C 0.5 -3.960938 0.40625 -4.296875 0.40625 -4.703125 C 0.40625 -5.316406 0.625 -5.796875 1.0625 -6.140625 C 1.507812 -6.484375 2.09375 -6.65625 2.8125 -6.65625 C 3.53125 -6.65625 4.109375 -6.484375 4.546875 -6.140625 C 4.992188 -5.796875 5.234375 -5.316406 5.265625 -4.703125 L 3.53125 -4.703125 C 3.519531 -4.910156 3.441406 -5.070312 3.296875 -5.1875 C 3.160156 -5.3125 2.976562 -5.375 2.75 -5.375 C 2.5625 -5.375 2.40625 -5.320312 2.28125 -5.21875 C 2.164062 -5.125 2.109375 -4.976562 2.109375 -4.78125 C 2.109375 -4.570312 2.207031 -4.40625 2.40625 -4.28125 C 2.601562 -4.164062 2.914062 -4.039062 3.34375 -3.90625 C 3.769531 -3.757812 4.113281 -3.617188 4.375 -3.484375 C 4.632812 -3.359375 4.863281 -3.171875 5.0625 -2.921875 C 5.257812 -2.671875 5.359375 -2.347656 5.359375 -1.953125 C 5.359375 -1.578125 5.257812 -1.238281 5.0625 -0.9375 C 4.875 -0.632812 4.597656 -0.390625 4.234375 -0.203125 C 3.878906 -0.0234375 3.453125 0.0625 2.953125 0.0625 Z M 2.953125 0.0625 "/></g></g></g><g fill="#ffffff" fill-opacity="1"><g transform="translate(70.237936, 56.989163)"><g><path d="M 7.25 -5.28125 C 7.894531 -5.28125 8.410156 -5.082031 8.796875 -4.6875 C 9.179688 -4.289062 9.375 -3.742188 9.375 -3.046875 L 9.375 0 L 7.78125 0 L 7.78125 -2.828125 C 7.78125 -3.171875 7.691406 -3.429688 7.515625 -3.609375 C 7.335938 -3.796875 7.09375 -3.890625 6.78125 -3.890625 C 6.46875 -3.890625 6.222656 -3.796875 6.046875 -3.609375 C 5.867188 -3.429688 5.78125 -3.171875 5.78125 -2.828125 L 5.78125 0 L 4.1875 0 L 4.1875 -2.828125 C 4.1875 -3.171875 4.097656 -3.429688 3.921875 -3.609375 C 3.742188 -3.796875 3.5 -3.890625 3.1875 -3.890625 C 2.875 -3.890625 2.628906 -3.796875 2.453125 -3.609375 C 2.273438 -3.429688 2.1875 -3.171875 2.1875 -2.828125 L 2.1875 0 L 0.578125 0 L 0.578125 -5.21875 L 2.1875 -5.21875 L 2.1875 -4.5625 C 2.34375 -4.78125 2.550781 -4.953125 2.8125 -5.078125 C 3.070312 -5.210938 3.367188 -5.28125 3.703125 -5.28125 C 4.097656 -5.28125 4.445312 -5.191406 4.75 -5.015625 C 5.0625 -4.847656 5.304688 -4.613281 5.484375 -4.3125 C 5.660156 -4.59375 5.90625 -4.820312 6.21875 -5 C 6.53125 -5.1875 6.875 -5.28125 7.25 -5.28125 Z M 7.25 -5.28125 "/></g></g></g><g fill="#ffffff" fill-opacity="1"><g transform="translate(80.150064, 56.989163)"><g><path d="M 0.265625 -2.625 C 0.265625 -3.15625 0.363281 -3.625 0.5625 -4.03125 C 0.769531 -4.4375 1.046875 -4.75 1.390625 -4.96875 C 1.742188 -5.1875 2.132812 -5.296875 2.5625 -5.296875 C 2.925781 -5.296875 3.25 -5.21875 3.53125 -5.0625 C 3.8125 -4.914062 4.023438 -4.722656 4.171875 -4.484375 L 4.171875 -5.21875 L 5.78125 -5.21875 L 5.78125 0 L 4.171875 0 L 4.171875 -0.734375 C 4.015625 -0.492188 3.796875 -0.296875 3.515625 -0.140625 C 3.242188 0.00390625 2.925781 0.078125 2.5625 0.078125 C 2.132812 0.078125 1.742188 -0.03125 1.390625 -0.25 C 1.046875 -0.476562 0.769531 -0.796875 0.5625 -1.203125 C 0.363281 -1.609375 0.265625 -2.082031 0.265625 -2.625 Z M 4.171875 -2.609375 C 4.171875 -3.003906 4.0625 -3.316406 3.84375 -3.546875 C 3.625 -3.785156 3.351562 -3.90625 3.03125 -3.90625 C 2.71875 -3.90625 2.445312 -3.789062 2.21875 -3.5625 C 2 -3.332031 1.890625 -3.019531 1.890625 -2.625 C 1.890625 -2.21875 2 -1.894531 2.21875 -1.65625 C 2.445312 -1.425781 2.71875 -1.3125 3.03125 -1.3125 C 3.351562 -1.3125 3.625 -1.425781 3.84375 -1.65625 C 4.0625 -1.894531 4.171875 -2.210938 4.171875 -2.609375 Z M 4.171875 -2.609375 "/></g></g></g><g fill="#ffffff" fill-opacity="1"><g transform="translate(86.505439, 56.989163)"><g><path d="M 2.1875 -4.359375 C 2.375 -4.640625 2.601562 -4.863281 2.875 -5.03125 C 3.15625 -5.195312 3.46875 -5.28125 3.8125 -5.28125 L 3.8125 -3.578125 L 3.375 -3.578125 C 2.976562 -3.578125 2.679688 -3.488281 2.484375 -3.3125 C 2.285156 -3.144531 2.1875 -2.847656 2.1875 -2.421875 L 2.1875 0 L 0.578125 0 L 0.578125 -5.21875 L 2.1875 -5.21875 Z M 2.1875 -4.359375 "/></g></g></g><g fill="#ffffff" fill-opacity="1"><g transform="translate(90.511475, 56.989163)"><g><path d="M 3.484375 -1.359375 L 3.484375 0 L 2.671875 0 C 2.097656 0 1.644531 -0.140625 1.3125 -0.421875 C 0.988281 -0.710938 0.828125 -1.175781 0.828125 -1.8125 L 0.828125 -3.890625 L 0.203125 -3.890625 L 0.203125 -5.21875 L 0.828125 -5.21875 L 0.828125 -6.5 L 2.4375 -6.5 L 2.4375 -5.21875 L 3.484375 -5.21875 L 3.484375 -3.890625 L 2.4375 -3.890625 L 2.4375 -1.796875 C 2.4375 -1.640625 2.472656 -1.523438 2.546875 -1.453125 C 2.617188 -1.390625 2.742188 -1.359375 2.921875 -1.359375 Z M 3.484375 -1.359375 "/></g></g></g><g transform="matrix(1, 0, 0, 1, 45, 58)"><g clip-path="url(#1985dba255)"><g clip-path="url(#f56ffa66ba)"><g fill="#ffffff" fill-opacity="1"><g transform="translate(0.535538, 4.43862)"><g><path d="M 0.171875 -1.34375 C 0.171875 -1.601562 0.226562 -1.835938 0.34375 -2.046875 C 0.457031 -2.265625 0.617188 -2.429688 0.828125 -2.546875 C 1.035156 -2.660156 1.265625 -2.71875 1.515625 -2.71875 C 1.804688 -2.71875 2.0625 -2.644531 2.28125 -2.5 C 2.5 -2.363281 2.65625 -2.164062 2.75 -1.90625 L 2.328125 -1.90625 C 2.253906 -2.070312 2.144531 -2.195312 2 -2.28125 C 1.863281 -2.375 1.703125 -2.421875 1.515625 -2.421875 C 1.328125 -2.421875 1.15625 -2.375 1 -2.28125 C 0.851562 -2.195312 0.738281 -2.070312 0.65625 -1.90625 C 0.570312 -1.75 0.53125 -1.5625 0.53125 -1.34375 C 0.53125 -1.132812 0.570312 -0.945312 0.65625 -0.78125 C 0.738281 -0.625 0.851562 -0.5 1 -0.40625 C 1.15625 -0.320312 1.328125 -0.28125 1.515625 -0.28125 C 1.703125 -0.28125 1.863281 -0.320312 2 -0.40625 C 2.144531 -0.5 2.253906 -0.625 2.328125 -0.78125 L 2.75 -0.78125 C 2.65625 -0.519531 2.5 -0.320312 2.28125 -0.1875 C 2.0625 -0.0507812 1.804688 0.015625 1.515625 0.015625 C 1.265625 0.015625 1.035156 -0.0390625 0.828125 -0.15625 C 0.617188 -0.269531 0.457031 -0.429688 0.34375 -0.640625 C 0.226562 -0.847656 0.171875 -1.082031 0.171875 -1.34375 Z M 0.171875 -1.34375 "/></g></g></g></g><g fill="#ffffff" fill-opacity="1"><g transform="translate(4.083726, 4.43862)"><g><path d="M 1.21875 0.03125 C 1.019531 0.03125 0.835938 -0.0078125 0.671875 -0.09375 C 0.515625 -0.1875 0.390625 -0.316406 0.296875 -0.484375 C 0.210938 -0.648438 0.171875 -0.84375 0.171875 -1.0625 C 0.171875 -1.28125 0.21875 -1.472656 0.3125 -1.640625 C 0.40625 -1.804688 0.53125 -1.929688 0.6875 -2.015625 C 0.851562 -2.109375 1.035156 -2.15625 1.234375 -2.15625 C 1.429688 -2.15625 1.609375 -2.109375 1.765625 -2.015625 C 1.929688 -1.929688 2.0625 -1.804688 2.15625 -1.640625 C 2.25 -1.472656 2.296875 -1.28125 2.296875 -1.0625 C 2.296875 -0.84375 2.25 -0.648438 2.15625 -0.484375 C 2.0625 -0.316406 1.929688 -0.1875 1.765625 -0.09375 C 1.597656 -0.0078125 1.414062 0.03125 1.21875 0.03125 Z M 1.21875 -0.28125 C 1.34375 -0.28125 1.457031 -0.304688 1.5625 -0.359375 C 1.675781 -0.421875 1.765625 -0.507812 1.828125 -0.625 C 1.898438 -0.75 1.9375 -0.894531 1.9375 -1.0625 C 1.9375 -1.226562 1.90625 -1.367188 1.84375 -1.484375 C 1.78125 -1.609375 1.691406 -1.695312 1.578125 -1.75 C 1.472656 -1.8125 1.359375 -1.84375 1.234375 -1.84375 C 1.097656 -1.84375 0.976562 -1.8125 0.875 -1.75 C 0.769531 -1.695312 0.6875 -1.609375 0.625 -1.484375 C 0.5625 -1.367188 0.53125 -1.226562 0.53125 -1.0625 C 0.53125 -0.882812 0.5625 -0.738281 0.625 -0.625 C 0.6875 -0.507812 0.769531 -0.421875 0.875 -0.359375 C 0.976562 -0.304688 1.09375 -0.28125 1.21875 -0.28125 Z M 1.21875 -0.28125 "/></g></g></g><g fill="#ffffff" fill-opacity="1"><g transform="translate(7.12227, 4.43862)"><g><path d="M 1.328125 -2.15625 C 1.585938 -2.15625 1.796875 -2.078125 1.953125 -1.921875 C 2.109375 -1.765625 2.1875 -1.539062 2.1875 -1.25 L 2.1875 0 L 1.84375 0 L 1.84375 -1.203125 C 1.84375 -1.410156 1.789062 -1.566406 1.6875 -1.671875 C 1.582031 -1.785156 1.4375 -1.84375 1.25 -1.84375 C 1.0625 -1.84375 0.910156 -1.785156 0.796875 -1.671875 C 0.691406 -1.554688 0.640625 -1.390625 0.640625 -1.171875 L 0.640625 0 L 0.296875 0 L 0.296875 -2.109375 L 0.640625 -2.109375 L 0.640625 -1.8125 C 0.710938 -1.914062 0.804688 -2 0.921875 -2.0625 C 1.046875 -2.125 1.179688 -2.15625 1.328125 -2.15625 Z M 1.328125 -2.15625 "/></g></g></g><g fill="#ffffff" fill-opacity="1"><g transform="translate(10.160814, 4.43862)"><g><path d="M 0.171875 -1.0625 C 0.171875 -1.28125 0.210938 -1.46875 0.296875 -1.625 C 0.378906 -1.789062 0.5 -1.921875 0.65625 -2.015625 C 0.8125 -2.109375 0.992188 -2.15625 1.203125 -2.15625 C 1.460938 -2.15625 1.675781 -2.085938 1.84375 -1.953125 C 2.007812 -1.828125 2.117188 -1.65625 2.171875 -1.4375 L 1.796875 -1.4375 C 1.753906 -1.5625 1.679688 -1.660156 1.578125 -1.734375 C 1.472656 -1.816406 1.347656 -1.859375 1.203125 -1.859375 C 0.992188 -1.859375 0.828125 -1.785156 0.703125 -1.640625 C 0.585938 -1.503906 0.53125 -1.3125 0.53125 -1.0625 C 0.53125 -0.800781 0.585938 -0.601562 0.703125 -0.46875 C 0.828125 -0.332031 0.992188 -0.265625 1.203125 -0.265625 C 1.347656 -0.265625 1.472656 -0.300781 1.578125 -0.375 C 1.679688 -0.445312 1.753906 -0.546875 1.796875 -0.671875 L 2.171875 -0.671875 C 2.117188 -0.460938 2.003906 -0.289062 1.828125 -0.15625 C 1.660156 -0.03125 1.453125 0.03125 1.203125 0.03125 C 0.992188 0.03125 0.8125 -0.0078125 0.65625 -0.09375 C 0.5 -0.1875 0.378906 -0.316406 0.296875 -0.484375 C 0.210938 -0.648438 0.171875 -0.84375 0.171875 -1.0625 Z M 0.171875 -1.0625 "/></g></g></g><g fill="#ffffff" fill-opacity="1"><g transform="translate(13.071949, 4.43862)"><g><path d="M 2.234375 -1.140625 C 2.234375 -1.066406 2.226562 -0.992188 2.21875 -0.921875 L 0.53125 -0.921875 C 0.539062 -0.710938 0.609375 -0.550781 0.734375 -0.4375 C 0.867188 -0.320312 1.03125 -0.265625 1.21875 -0.265625 C 1.363281 -0.265625 1.488281 -0.296875 1.59375 -0.359375 C 1.695312 -0.429688 1.769531 -0.53125 1.8125 -0.65625 L 2.1875 -0.65625 C 2.125 -0.445312 2.007812 -0.28125 1.84375 -0.15625 C 1.675781 -0.03125 1.46875 0.03125 1.21875 0.03125 C 1.007812 0.03125 0.828125 -0.0078125 0.671875 -0.09375 C 0.515625 -0.1875 0.390625 -0.316406 0.296875 -0.484375 C 0.210938 -0.648438 0.171875 -0.84375 0.171875 -1.0625 C 0.171875 -1.28125 0.210938 -1.472656 0.296875 -1.640625 C 0.378906 -1.804688 0.5 -1.929688 0.65625 -2.015625 C 0.820312 -2.109375 1.007812 -2.15625 1.21875 -2.15625 C 1.414062 -2.15625 1.585938 -2.109375 1.734375 -2.015625 C 1.890625 -1.929688 2.007812 -1.8125 2.09375 -1.65625 C 2.1875 -1.5 2.234375 -1.328125 2.234375 -1.140625 Z M 1.859375 -1.21875 C 1.859375 -1.34375 1.828125 -1.453125 1.765625 -1.546875 C 1.710938 -1.648438 1.632812 -1.726562 1.53125 -1.78125 C 1.425781 -1.832031 1.316406 -1.859375 1.203125 -1.859375 C 1.023438 -1.859375 0.875 -1.800781 0.75 -1.6875 C 0.625 -1.570312 0.550781 -1.414062 0.53125 -1.21875 Z M 1.859375 -1.21875 "/></g></g></g><g fill="#ffffff" fill-opacity="1"><g transform="translate(16.033273, 4.43862)"><g><path d="M 0.640625 -1.765625 C 0.703125 -1.890625 0.789062 -1.984375 0.90625 -2.046875 C 1.019531 -2.117188 1.160156 -2.15625 1.328125 -2.15625 L 1.328125 -1.796875 L 1.234375 -1.796875 C 0.835938 -1.796875 0.640625 -1.582031 0.640625 -1.15625 L 0.640625 0 L 0.296875 0 L 0.296875 -2.109375 L 0.640625 -2.109375 Z M 0.640625 -1.765625 "/></g></g></g><g fill="#ffffff" fill-opacity="1"><g transform="translate(18.040949, 4.43862)"><g><path d="M 0.71875 -1.828125 L 0.71875 -0.578125 C 0.71875 -0.472656 0.738281 -0.398438 0.78125 -0.359375 C 0.832031 -0.316406 0.910156 -0.296875 1.015625 -0.296875 L 1.28125 -0.296875 L 1.28125 0 L 0.96875 0 C 0.769531 0 0.617188 -0.0390625 0.515625 -0.125 C 0.421875 -0.21875 0.375 -0.367188 0.375 -0.578125 L 0.375 -1.828125 L 0.09375 -1.828125 L 0.09375 -2.109375 L 0.375 -2.109375 L 0.375 -2.640625 L 0.71875 -2.640625 L 0.71875 -2.109375 L 1.28125 -2.109375 L 1.28125 -1.828125 Z M 0.71875 -1.828125 "/></g></g></g><g fill="#ffffff" fill-opacity="1"><g transform="translate(20.013875, 4.43862)"><g/></g></g><g fill="#ffffff" fill-opacity="1"><g transform="translate(21.612294, 4.43862)"><g><path d="M 1.953125 -2.6875 L 1.953125 -2.40625 L 1.21875 -2.40625 L 1.21875 0 L 0.875 0 L 0.875 -2.40625 L 0.125 -2.40625 L 0.125 -2.6875 Z M 1.953125 -2.6875 "/></g></g></g><g fill="#ffffff" fill-opacity="1"><g transform="translate(24.268608, 4.43862)"><g><path d="M 0.484375 -2.453125 C 0.410156 -2.453125 0.347656 -2.472656 0.296875 -2.515625 C 0.253906 -2.566406 0.234375 -2.628906 0.234375 -2.703125 C 0.234375 -2.765625 0.253906 -2.816406 0.296875 -2.859375 C 0.347656 -2.910156 0.410156 -2.9375 0.484375 -2.9375 C 0.546875 -2.9375 0.597656 -2.910156 0.640625 -2.859375 C 0.679688 -2.816406 0.703125 -2.765625 0.703125 -2.703125 C 0.703125 -2.628906 0.679688 -2.566406 0.640625 -2.515625 C 0.597656 -2.472656 0.546875 -2.453125 0.484375 -2.453125 Z M 0.640625 -2.109375 L 0.640625 0 L 0.296875 0 L 0.296875 -2.109375 Z M 0.640625 -2.109375 "/></g></g></g><g fill="#ffffff" fill-opacity="1"><g transform="translate(25.785948, 4.43862)"><g><path d="M 0.171875 -1.0625 C 0.171875 -1.28125 0.210938 -1.46875 0.296875 -1.625 C 0.378906 -1.789062 0.5 -1.921875 0.65625 -2.015625 C 0.8125 -2.109375 0.992188 -2.15625 1.203125 -2.15625 C 1.460938 -2.15625 1.675781 -2.085938 1.84375 -1.953125 C 2.007812 -1.828125 2.117188 -1.65625 2.171875 -1.4375 L 1.796875 -1.4375 C 1.753906 -1.5625 1.679688 -1.660156 1.578125 -1.734375 C 1.472656 -1.816406 1.347656 -1.859375 1.203125 -1.859375 C 0.992188 -1.859375 0.828125 -1.785156 0.703125 -1.640625 C 0.585938 -1.503906 0.53125 -1.3125 0.53125 -1.0625 C 0.53125 -0.800781 0.585938 -0.601562 0.703125 -0.46875 C 0.828125 -0.332031 0.992188 -0.265625 1.203125 -0.265625 C 1.347656 -0.265625 1.472656 -0.300781 1.578125 -0.375 C 1.679688 -0.445312 1.753906 -0.546875 1.796875 -0.671875 L 2.171875 -0.671875 C 2.117188 -0.460938 2.003906 -0.289062 1.828125 -0.15625 C 1.660156 -0.03125 1.453125 0.03125 1.203125 0.03125 C 0.992188 0.03125 0.8125 -0.0078125 0.65625 -0.09375 C 0.5 -0.1875 0.378906 -0.316406 0.296875 -0.484375 C 0.210938 -0.648438 0.171875 -0.84375 0.171875 -1.0625 Z M 0.171875 -1.0625 "/></g></g></g><g fill="#ffffff" fill-opacity="1"><g transform="translate(28.697083, 4.43862)"><g><path d="M 1.484375 0 L 0.640625 -0.9375 L 0.640625 0 L 0.296875 0 L 0.296875 -2.859375 L 0.640625 -2.859375 L 0.640625 -1.171875 L 1.46875 -2.109375 L 1.953125 -2.109375 L 0.953125 -1.0625 L 1.953125 0 Z M 1.484375 0 "/></g></g></g><g fill="#ffffff" fill-opacity="1"><g transform="translate(31.25301, 4.43862)"><g><path d="M 2.234375 -1.140625 C 2.234375 -1.066406 2.226562 -0.992188 2.21875 -0.921875 L 0.53125 -0.921875 C 0.539062 -0.710938 0.609375 -0.550781 0.734375 -0.4375 C 0.867188 -0.320312 1.03125 -0.265625 1.21875 -0.265625 C 1.363281 -0.265625 1.488281 -0.296875 1.59375 -0.359375 C 1.695312 -0.429688 1.769531 -0.53125 1.8125 -0.65625 L 2.1875 -0.65625 C 2.125 -0.445312 2.007812 -0.28125 1.84375 -0.15625 C 1.675781 -0.03125 1.46875 0.03125 1.21875 0.03125 C 1.007812 0.03125 0.828125 -0.0078125 0.671875 -0.09375 C 0.515625 -0.1875 0.390625 -0.316406 0.296875 -0.484375 C 0.210938 -0.648438 0.171875 -0.84375 0.171875 -1.0625 C 0.171875 -1.28125 0.210938 -1.472656 0.296875 -1.640625 C 0.378906 -1.804688 0.5 -1.929688 0.65625 -2.015625 C 0.820312 -2.109375 1.007812 -2.15625 1.21875 -2.15625 C 1.414062 -2.15625 1.585938 -2.109375 1.734375 -2.015625 C 1.890625 -1.929688 2.007812 -1.8125 2.09375 -1.65625 C 2.1875 -1.5 2.234375 -1.328125 2.234375 -1.140625 Z M 1.859375 -1.21875 C 1.859375 -1.34375 1.828125 -1.453125 1.765625 -1.546875 C 1.710938 -1.648438 1.632812 -1.726562 1.53125 -1.78125 C 1.425781 -1.832031 1.316406 -1.859375 1.203125 -1.859375 C 1.023438 -1.859375 0.875 -1.800781 0.75 -1.6875 C 0.625 -1.570312 0.550781 -1.414062 0.53125 -1.21875 Z M 1.859375 -1.21875 "/></g></g></g><g fill="#ffffff" fill-opacity="1"><g transform="translate(34.214334, 4.43862)"><g><path d="M 0.71875 -1.828125 L 0.71875 -0.578125 C 0.71875 -0.472656 0.738281 -0.398438 0.78125 -0.359375 C 0.832031 -0.316406 0.910156 -0.296875 1.015625 -0.296875 L 1.28125 -0.296875 L 1.28125 0 L 0.96875 0 C 0.769531 0 0.617188 -0.0390625 0.515625 -0.125 C 0.421875 -0.21875 0.375 -0.367188 0.375 -0.578125 L 0.375 -1.828125 L 0.09375 -1.828125 L 0.09375 -2.109375 L 0.375 -2.109375 L 0.375 -2.640625 L 0.71875 -2.640625 L 0.71875 -2.109375 L 1.28125 -2.109375 L 1.28125 -1.828125 Z M 0.71875 -1.828125 "/></g></g></g><g fill="#ffffff" fill-opacity="1"><g transform="translate(36.187261, 4.43862)"><g><path d="M 0.484375 -2.453125 C 0.410156 -2.453125 0.347656 -2.472656 0.296875 -2.515625 C 0.253906 -2.566406 0.234375 -2.628906 0.234375 -2.703125 C 0.234375 -2.765625 0.253906 -2.816406 0.296875 -2.859375 C 0.347656 -2.910156 0.410156 -2.9375 0.484375 -2.9375 C 0.546875 -2.9375 0.597656 -2.910156 0.640625 -2.859375 C 0.679688 -2.816406 0.703125 -2.765625 0.703125 -2.703125 C 0.703125 -2.628906 0.679688 -2.566406 0.640625 -2.515625 C 0.597656 -2.472656 0.546875 -2.453125 0.484375 -2.453125 Z M 0.640625 -2.109375 L 0.640625 0 L 0.296875 0 L 0.296875 -2.109375 Z M 0.640625 -2.109375 "/></g></g></g><g fill="#ffffff" fill-opacity="1"><g transform="translate(37.704601, 4.43862)"><g><path d="M 1.328125 -2.15625 C 1.585938 -2.15625 1.796875 -2.078125 1.953125 -1.921875 C 2.109375 -1.765625 2.1875 -1.539062 2.1875 -1.25 L 2.1875 0 L 1.84375 0 L 1.84375 -1.203125 C 1.84375 -1.410156 1.789062 -1.566406 1.6875 -1.671875 C 1.582031 -1.785156 1.4375 -1.84375 1.25 -1.84375 C 1.0625 -1.84375 0.910156 -1.785156 0.796875 -1.671875 C 0.691406 -1.554688 0.640625 -1.390625 0.640625 -1.171875 L 0.640625 0 L 0.296875 0 L 0.296875 -2.109375 L 0.640625 -2.109375 L 0.640625 -1.8125 C 0.710938 -1.914062 0.804688 -2 0.921875 -2.0625 C 1.046875 -2.125 1.179688 -2.15625 1.328125 -2.15625 Z M 1.328125 -2.15625 "/></g></g></g><g fill="#ffffff" fill-opacity="1"><g transform="translate(40.743145, 4.43862)"><g><path d="M 1.171875 -2.15625 C 1.347656 -2.15625 1.503906 -2.113281 1.640625 -2.03125 C 1.785156 -1.945312 1.890625 -1.847656 1.953125 -1.734375 L 1.953125 -2.109375 L 2.3125 -2.109375 L 2.3125 0.046875 C 2.3125 0.234375 2.269531 0.398438 2.1875 0.546875 C 2.101562 0.703125 1.984375 0.820312 1.828125 0.90625 C 1.679688 1 1.503906 1.046875 1.296875 1.046875 C 1.023438 1.046875 0.796875 0.976562 0.609375 0.84375 C 0.421875 0.707031 0.3125 0.53125 0.28125 0.3125 L 0.625 0.3125 C 0.664062 0.4375 0.742188 0.535156 0.859375 0.609375 C 0.984375 0.691406 1.128906 0.734375 1.296875 0.734375 C 1.492188 0.734375 1.648438 0.671875 1.765625 0.546875 C 1.890625 0.429688 1.953125 0.265625 1.953125 0.046875 L 1.953125 -0.390625 C 1.890625 -0.273438 1.785156 -0.175781 1.640625 -0.09375 C 1.503906 -0.0078125 1.347656 0.03125 1.171875 0.03125 C 0.984375 0.03125 0.8125 -0.015625 0.65625 -0.109375 C 0.5 -0.203125 0.378906 -0.332031 0.296875 -0.5 C 0.210938 -0.664062 0.171875 -0.851562 0.171875 -1.0625 C 0.171875 -1.28125 0.210938 -1.46875 0.296875 -1.625 C 0.378906 -1.789062 0.5 -1.921875 0.65625 -2.015625 C 0.8125 -2.109375 0.984375 -2.15625 1.171875 -2.15625 Z M 1.953125 -1.0625 C 1.953125 -1.21875 1.921875 -1.351562 1.859375 -1.46875 C 1.796875 -1.59375 1.707031 -1.6875 1.59375 -1.75 C 1.488281 -1.8125 1.367188 -1.84375 1.234375 -1.84375 C 1.109375 -1.84375 0.988281 -1.8125 0.875 -1.75 C 0.769531 -1.6875 0.6875 -1.59375 0.625 -1.46875 C 0.5625 -1.351562 0.53125 -1.21875 0.53125 -1.0625 C 0.53125 -0.90625 0.5625 -0.765625 0.625 -0.640625 C 0.6875 -0.523438 0.769531 -0.4375 0.875 -0.375 C 0.988281 -0.3125 1.109375 -0.28125 1.234375 -0.28125 C 1.367188 -0.28125 1.488281 -0.3125 1.59375 -0.375 C 1.707031 -0.4375 1.796875 -0.523438 1.859375 -0.640625 C 1.921875 -0.765625 1.953125 -0.90625 1.953125 -1.0625 Z M 1.953125 -1.0625 "/></g></g></g></g></g></svg>