<svg xmlns="http://www.w3.org/2000/svg" xmlns:xlink="http://www.w3.org/1999/xlink" width="151" zoomAndPan="magnify" viewBox="0 0 113.25 113.249998" height="151" preserveAspectRatio="xMidYMid meet" version="1.0"><defs><clipPath id="7724392fbe"><path d="M 0 0 L 112.503906 0 L 112.503906 112.503906 L 0 112.503906 Z M 0 0 " clip-rule="nonzero"/></clipPath><clipPath id="2af40452fc"><path d="M 15.160156 24.988281 L 97.113281 24.988281 L 97.113281 87.574219 L 15.160156 87.574219 Z M 15.160156 24.988281 " clip-rule="nonzero"/></clipPath><clipPath id="4890452798"><path d="M 35 40 L 81 40 L 81 72 L 35 72 Z M 35 40 " clip-rule="nonzero"/></clipPath><clipPath id="2efb68ff68"><path d="M 41.089844 30.75 L 81.472656 41.234375 L 71.925781 78.015625 L 31.539062 67.53125 Z M 41.089844 30.75 " clip-rule="nonzero"/></clipPath><clipPath id="d03911f9ac"><path d="M 41.089844 30.75 L 81.472656 41.234375 L 71.925781 78.015625 L 31.539062 67.53125 Z M 41.089844 30.75 " clip-rule="nonzero"/></clipPath></defs><g clip-path="url(#7724392fbe)"><path fill="#ffffff" d="M 0 0 L 112.503906 0 L 112.503906 112.503906 L 0 112.503906 Z M 0 0 " fill-opacity="1" fill-rule="nonzero"/><path fill="#ffffff" d="M 0 0 L 112.503906 0 L 112.503906 112.503906 L 0 112.503906 Z M 0 0 " fill-opacity="1" fill-rule="nonzero"/></g><g clip-path="url(#2af40452fc)"><path fill="#dc2626" d="M 119.550781 70.1875 C 118.851562 70.886719 118.453125 71.289062 117.75 71.988281 C 117.050781 71.289062 116.652344 70.886719 115.949219 70.1875 L 115.949219 42.441406 C 116.652344 41.742188 117.050781 41.339844 117.75 40.640625 C 118.453125 41.339844 118.851562 41.742188 119.550781 42.441406 Z M 157.011719 82.085938 C 157.011719 81.15625 157.765625 80.40625 158.695312 80.40625 L 158.695312 79.070312 C 157.765625 79.070312 157.011719 78.316406 157.011719 77.386719 C 157.011719 76.457031 157.765625 75.707031 158.695312 75.707031 L 158.695312 74.371094 C 157.765625 74.371094 157.011719 73.617188 157.011719 72.6875 C 157.011719 71.757812 157.765625 71.003906 158.695312 71.003906 L 158.695312 69.671875 C 157.765625 69.671875 157.011719 68.917969 157.011719 67.988281 C 157.011719 67.058594 157.765625 66.304688 158.695312 66.304688 L 158.695312 64.875 C 153.96875 64.875 150.132812 61.042969 150.132812 56.3125 C 150.132812 51.585938 153.96875 47.75 158.695312 47.75 L 158.695312 46.324219 C 157.765625 46.324219 157.011719 45.570312 157.011719 44.640625 C 157.011719 43.710938 157.765625 42.957031 158.695312 42.957031 L 158.695312 41.621094 C 157.765625 41.621094 157.011719 40.871094 157.011719 39.941406 C 157.011719 39.011719 157.765625 38.257812 158.695312 38.257812 L 158.695312 36.921875 C 157.765625 36.921875 157.011719 36.171875 157.011719 35.242188 C 157.011719 34.3125 157.765625 33.558594 158.695312 33.558594 L 158.695312 32.222656 C 157.765625 32.222656 157.011719 31.46875 157.011719 30.542969 C 157.011719 29.628906 157.742188 28.882812 158.652344 28.859375 C 158.363281 26.675781 156.496094 24.988281 154.230469 24.988281 L 126.3125 24.988281 C 126.3125 29.714844 122.480469 33.550781 117.75 33.550781 C 113.023438 33.550781 109.1875 29.714844 109.1875 24.988281 L 19.625 24.988281 C 17.359375 24.988281 15.492188 26.675781 15.203125 28.859375 C 16.113281 28.882812 16.84375 29.628906 16.84375 30.542969 C 16.84375 31.46875 16.089844 32.222656 15.160156 32.222656 L 15.160156 33.558594 C 16.089844 33.558594 16.84375 34.3125 16.84375 35.242188 C 16.84375 36.171875 16.089844 36.921875 15.160156 36.921875 L 15.160156 38.257812 C 16.089844 38.257812 16.84375 39.011719 16.84375 39.941406 C 16.84375 40.871094 16.089844 41.621094 15.160156 41.621094 L 15.160156 42.957031 C 16.089844 42.957031 16.84375 43.710938 16.84375 44.640625 C 16.84375 45.570312 16.089844 46.324219 15.160156 46.324219 L 15.160156 47.75 C 19.890625 47.75 23.722656 51.585938 23.722656 56.3125 C 23.722656 61.042969 19.890625 64.875 15.160156 64.875 L 15.160156 66.304688 C 16.089844 66.304688 16.84375 67.058594 16.84375 67.988281 C 16.84375 68.917969 16.089844 69.671875 15.160156 69.671875 L 15.160156 71.003906 C 16.089844 71.003906 16.84375 71.757812 16.84375 72.6875 C 16.84375 73.617188 16.089844 74.371094 15.160156 74.371094 L 15.160156 75.707031 C 16.089844 75.707031 16.84375 76.457031 16.84375 77.386719 C 16.84375 78.316406 16.089844 79.070312 15.160156 79.070312 L 15.160156 80.40625 C 16.089844 80.40625 16.84375 81.15625 16.84375 82.085938 C 16.84375 83 16.113281 83.746094 15.203125 83.765625 C 15.492188 85.953125 17.359375 87.640625 19.625 87.640625 L 109.1875 87.640625 C 109.1875 82.914062 113.023438 79.078125 117.75 79.078125 C 122.480469 79.078125 126.3125 82.914062 126.3125 87.640625 L 154.230469 87.640625 C 156.496094 87.640625 158.363281 85.953125 158.652344 83.765625 C 157.742188 83.746094 157.011719 83 157.011719 82.085938 " fill-opacity="1" fill-rule="nonzero"/></g><g clip-path="url(#4890452798)"><g clip-path="url(#2efb68ff68)"><g clip-path="url(#d03911f9ac)"><path fill="#ffffff" d="M 45.988281 71.332031 C 45.285156 71.148438 44.699219 70.714844 44.339844 70.109375 L 35.933594 55.300781 C 35.097656 54.007812 35.5 52.285156 36.835938 51.464844 C 38.125 50.632812 39.847656 51.03125 40.667969 52.367188 L 47.523438 60.554688 C 47.890625 61.117188 48.660156 61.222656 49.191406 60.796875 L 75.519531 41.351562 C 76.703125 40.394531 78.476562 40.574219 79.421875 41.800781 C 80.378906 42.984375 80.199219 44.761719 78.96875 45.707031 L 48.417969 70.792969 C 47.777344 71.28125 46.972656 71.496094 46.21875 71.34375 C 46.117188 71.367188 46.074219 71.355469 45.988281 71.332031 Z M 45.988281 71.332031 " fill-opacity="1" fill-rule="nonzero"/></g></g></g></svg>