<svg viewBox="0 0 2000 1400" xmlns="http://www.w3.org/2000/svg"><mask id="b" x="0" y="0" width="2000" height="1400"><path fill="url(#a)" d="M0 0h2000v1400H0z"/></mask><path fill="#020618" d="M0 0h2000v1400H0z"/><g style="transform-origin:center center" stroke="#484e5c" stroke-width="2" mask="url(#b)"><path fill="#484e5cde" d="M0 0h83.333v83.333H0z" transform="skewX(30) scale(1.2)"/><path fill="#484e5c64" d="M83.333 0h83.333v83.333H83.333z" transform="skewX(30) scale(1.2)"/><path fill="#484e5ce4" d="M166.667 0H250v83.333h-83.333z" transform="skewX(30) scale(1.2)"/><path fill="none" d="M250 0h83.333v83.333H250z" transform="skewX(30) scale(1.2)"/><path fill="#484e5c98" d="M333.333 0h83.333v83.333h-83.333z" transform="skewX(30) scale(1.2)"/><path fill="none" d="M416.667 0H500v83.333h-83.333zM500 0h83.333v83.333H500z" transform="skewX(30) scale(1.2)"/><path fill="#484e5c34" d="M583.333 0h83.333v83.333h-83.333z" transform="skewX(30) scale(1.2)"/><path fill="none" d="M666.667 0H750v83.333h-83.333zM750 0h83.333v83.333H750z" transform="skewX(30) scale(1.2)"/><path fill="#484e5c42" d="M833.333 0h83.333v83.333h-83.333z" transform="skewX(30) scale(1.2)"/><path fill="#484e5cc6" d="M916.667 0H1000v83.333h-83.333z" transform="skewX(30) scale(1.2)"/><path fill="none" d="M1000 0h83.333v83.333H1000zM1083.333 0h83.333v83.333h-83.333z" transform="skewX(30) scale(1.2)"/><path fill="#484e5c97" d="M1166.667 0H1250v83.333h-83.333z" transform="skewX(30) scale(1.2)"/><path fill="none" d="M1250 0h83.333v83.333H1250zM1333.333 0h83.333v83.333h-83.333zM1416.667 0H1500v83.333h-83.333zM1500 0h83.333v83.333H1500zM1583.333 0h83.333v83.333h-83.333zM1666.667 0H1750v83.333h-83.333z" transform="skewX(30) scale(1.2)"/><path fill="#484e5cb9" d="M1750 0h83.333v83.333H1750z" transform="skewX(30) scale(1.2)"/><path fill="none" d="M1833.333 0h83.333v83.333h-83.333zM1916.667 0H2000v83.333h-83.333z" transform="skewX(30) scale(1.2)"/><path fill="#484e5c59" d="M0 83.333h83.333v83.333H0z" transform="skewX(30) scale(1.2)"/><path fill="#484e5cbe" d="M83.333 83.333h83.333v83.333H83.333z" transform="skewX(30) scale(1.2)"/><path fill="none" d="M166.667 83.333H250v83.333h-83.333zM250 83.333h83.333v83.333H250zM333.333 83.333h83.333v83.333h-83.333zM416.667 83.333H500v83.333h-83.333z" transform="skewX(30) scale(1.2)"/><path fill="#484e5c8d" d="M500 83.333h83.333v83.333H500z" transform="skewX(30) scale(1.2)"/><path fill="#484e5c8a" d="M583.333 83.333h83.333v83.333h-83.333z" transform="skewX(30) scale(1.2)"/><path fill="#484e5ca9" d="M666.667 83.333H750v83.333h-83.333z" transform="skewX(30) scale(1.2)"/><path fill="#484e5c1a" d="M750 83.333h83.333v83.333H750z" transform="skewX(30) scale(1.2)"/><path fill="#484e5c54" d="M833.333 83.333h83.333v83.333h-83.333z" transform="skewX(30) scale(1.2)"/><path fill="none" d="M916.667 83.333H1000v83.333h-83.333zM1000 83.333h83.333v83.333H1000zM1083.333 83.333h83.333v83.333h-83.333zM1166.667 83.333H1250v83.333h-83.333zM1250 83.333h83.333v83.333H1250zM1333.333 83.333h83.333v83.333h-83.333zM1416.667 83.333H1500v83.333h-83.333zM1500 83.333h83.333v83.333H1500z" transform="skewX(30) scale(1.2)"/><path fill="#484e5c94" d="M1583.333 83.333h83.333v83.333h-83.333z" transform="skewX(30) scale(1.2)"/><path fill="#484e5c9b" d="M1666.667 83.333H1750v83.333h-83.333z" transform="skewX(30) scale(1.2)"/><path fill="none" d="M1750 83.333h83.333v83.333H1750z" transform="skewX(30) scale(1.2)"/><path fill="#484e5ca2" d="M1833.333 83.333h83.333v83.333h-83.333z" transform="skewX(30) scale(1.2)"/><path fill="none" d="M1916.667 83.333H2000v83.333h-83.333zM0 166.667h83.333V250H0zM83.333 166.667h83.333V250H83.333z" transform="skewX(30) scale(1.2)"/><path fill="#484e5c96" d="M166.667 166.667H250V250h-83.333z" transform="skewX(30) scale(1.2)"/><path fill="none" d="M250 166.667h83.333V250H250z" transform="skewX(30) scale(1.2)"/><path fill="#484e5cc7" d="M333.333 166.667h83.333V250h-83.333z" transform="skewX(30) scale(1.2)"/><path fill="none" d="M416.667 166.667H500V250h-83.333zM500 166.667h83.333V250H500zM583.333 166.667h83.333V250h-83.333z" transform="skewX(30) scale(1.2)"/><path fill="#484e5cc5" d="M666.667 166.667H750V250h-83.333z" transform="skewX(30) scale(1.2)"/><path fill="none" d="M750 166.667h83.333V250H750zM833.333 166.667h83.333V250h-83.333zM916.667 166.667H1000V250h-83.333zM1000 166.667h83.333V250H1000zM1083.333 166.667h83.333V250h-83.333zM1166.667 166.667H1250V250h-83.333z" transform="skewX(30) scale(1.2)"/><path fill="#484e5c44" d="M1250 166.667h83.333V250H1250z" transform="skewX(30) scale(1.2)"/><path fill="none" d="M1333.333 166.667h83.333V250h-83.333zM1416.667 166.667H1500V250h-83.333zM1500 166.667h83.333V250H1500zM1583.333 166.667h83.333V250h-83.333zM1666.667 166.667H1750V250h-83.333zM1750 166.667h83.333V250H1750zM1833.333 166.667h83.333V250h-83.333z" transform="skewX(30) scale(1.2)"/><path fill="#484e5ce0" d="M1916.667 166.667H2000V250h-83.333z" transform="skewX(30) scale(1.2)"/><path fill="none" d="M0 250h83.333v83.333H0zM83.333 250h83.333v83.333H83.333z" transform="skewX(30) scale(1.2)"/><path fill="#484e5c3e" d="M166.667 250H250v83.333h-83.333z" transform="skewX(30) scale(1.2)"/><path fill="none" d="M250 250h83.333v83.333H250zM333.333 250h83.333v83.333h-83.333z" transform="skewX(30) scale(1.2)"/><path fill="#484e5c0e" d="M416.667 250H500v83.333h-83.333z" transform="skewX(30) scale(1.2)"/><path fill="#484e5c3b" d="M500 250h83.333v83.333H500z" transform="skewX(30) scale(1.2)"/><path fill="none" d="M583.333 250h83.333v83.333h-83.333z" transform="skewX(30) scale(1.2)"/><path fill="#484e5cd5" d="M666.667 250H750v83.333h-83.333z" transform="skewX(30) scale(1.2)"/><path fill="none" d="M750 250h83.333v83.333H750zM833.333 250h83.333v83.333h-83.333z" transform="skewX(30) scale(1.2)"/><path fill="#484e5cbb" d="M916.667 250H1000v83.333h-83.333z" transform="skewX(30) scale(1.2)"/><path fill="#484e5cbc" d="M1000 250h83.333v83.333H1000z" transform="skewX(30) scale(1.2)"/><path fill="none" d="M1083.333 250h83.333v83.333h-83.333zM1166.667 250H1250v83.333h-83.333zM1250 250h83.333v83.333H1250zM1333.333 250h83.333v83.333h-83.333z" transform="skewX(30) scale(1.2)"/><path fill="#484e5c2c" d="M1416.667 250H1500v83.333h-83.333z" transform="skewX(30) scale(1.2)"/><path fill="none" d="M1500 250h83.333v83.333H1500z" transform="skewX(30) scale(1.2)"/><path fill="#484e5cf3" d="M1583.333 250h83.333v83.333h-83.333z" transform="skewX(30) scale(1.2)"/><path fill="none" d="M1666.667 250H1750v83.333h-83.333zM1750 250h83.333v83.333H1750zM1833.333 250h83.333v83.333h-83.333z" transform="skewX(30) scale(1.2)"/><path fill="#484e5c25" d="M1916.667 250H2000v83.333h-83.333z" transform="skewX(30) scale(1.2)"/><path fill="none" d="M0 333.333h83.333v83.333H0zM83.333 333.333h83.333v83.333H83.333zM166.667 333.333H250v83.333h-83.333zM250 333.333h83.333v83.333H250zM333.333 333.333h83.333v83.333h-83.333zM416.667 333.333H500v83.333h-83.333z" transform="skewX(30) scale(1.2)"/><path fill="#484e5c23" d="M500 333.333h83.333v83.333H500z" transform="skewX(30) scale(1.2)"/><path fill="none" d="M583.333 333.333h83.333v83.333h-83.333z" transform="skewX(30) scale(1.2)"/><path fill="#484e5c94" d="M666.667 333.333H750v83.333h-83.333z" transform="skewX(30) scale(1.2)"/><path fill="#484e5c06" d="M750 333.333h83.333v83.333H750z" transform="skewX(30) scale(1.2)"/><path fill="none" d="M833.333 333.333h83.333v83.333h-83.333zM916.667 333.333H1000v83.333h-83.333z" transform="skewX(30) scale(1.2)"/><path fill="#484e5ca7" d="M1000 333.333h83.333v83.333H1000z" transform="skewX(30) scale(1.2)"/><path fill="none" d="M1083.333 333.333h83.333v83.333h-83.333zM1166.667 333.333H1250v83.333h-83.333zM1250 333.333h83.333v83.333H1250z" transform="skewX(30) scale(1.2)"/><path fill="#484e5c29" d="M1333.333 333.333h83.333v83.333h-83.333z" transform="skewX(30) scale(1.2)"/><path fill="none" d="M1416.667 333.333H1500v83.333h-83.333zM1500 333.333h83.333v83.333H1500z" transform="skewX(30) scale(1.2)"/><path fill="#484e5c8c" d="M1583.333 333.333h83.333v83.333h-83.333z" transform="skewX(30) scale(1.2)"/><path fill="#484e5c3f" d="M1666.667 333.333H1750v83.333h-83.333z" transform="skewX(30) scale(1.2)"/><path fill="none" d="M1750 333.333h83.333v83.333H1750z" transform="skewX(30) scale(1.2)"/><path fill="#484e5c6c" d="M1833.333 333.333h83.333v83.333h-83.333z" transform="skewX(30) scale(1.2)"/><path fill="none" d="M1916.667 333.333H2000v83.333h-83.333zM0 416.667h83.333V500H0zM83.333 416.667h83.333V500H83.333z" transform="skewX(30) scale(1.2)"/><path fill="#484e5c72" d="M166.667 416.667H250V500h-83.333z" transform="skewX(30) scale(1.2)"/><path fill="none" d="M250 416.667h83.333V500H250zM333.333 416.667h83.333V500h-83.333zM416.667 416.667H500V500h-83.333zM500 416.667h83.333V500H500zM583.333 416.667h83.333V500h-83.333zM666.667 416.667H750V500h-83.333zM750 416.667h83.333V500H750zM833.333 416.667h83.333V500h-83.333zM916.667 416.667H1000V500h-83.333z" transform="skewX(30) scale(1.2)"/><path fill="#484e5cc3" d="M1000 416.667h83.333V500H1000z" transform="skewX(30) scale(1.2)"/><path fill="none" d="M1083.333 416.667h83.333V500h-83.333zM1166.667 416.667H1250V500h-83.333zM1250 416.667h83.333V500H1250zM1333.333 416.667h83.333V500h-83.333zM1416.667 416.667H1500V500h-83.333zM1500 416.667h83.333V500H1500zM1583.333 416.667h83.333V500h-83.333zM1666.667 416.667H1750V500h-83.333zM1750 416.667h83.333V500H1750zM1833.333 416.667h83.333V500h-83.333zM1916.667 416.667H2000V500h-83.333zM0 500h83.333v83.333H0zM83.333 500h83.333v83.333H83.333zM166.667 500H250v83.333h-83.333z" transform="skewX(30) scale(1.2)"/><path fill="#484e5c8e" d="M250 500h83.333v83.333H250z" transform="skewX(30) scale(1.2)"/><path fill="none" d="M333.333 500h83.333v83.333h-83.333zM416.667 500H500v83.333h-83.333zM500 500h83.333v83.333H500z" transform="skewX(30) scale(1.2)"/><path fill="#484e5cfa" d="M583.333 500h83.333v83.333h-83.333z" transform="skewX(30) scale(1.2)"/><path fill="none" d="M666.667 500H750v83.333h-83.333zM750 500h83.333v83.333H750zM833.333 500h83.333v83.333h-83.333zM916.667 500H1000v83.333h-83.333zM1000 500h83.333v83.333H1000z" transform="skewX(30) scale(1.2)"/><path fill="#484e5c71" d="M1083.333 500h83.333v83.333h-83.333z" transform="skewX(30) scale(1.2)"/><path fill="#484e5c1d" d="M1166.667 500H1250v83.333h-83.333z" transform="skewX(30) scale(1.2)"/><path fill="#484e5ccf" d="M1250 500h83.333v83.333H1250z" transform="skewX(30) scale(1.2)"/><path fill="none" d="M1333.333 500h83.333v83.333h-83.333zM1416.667 500H1500v83.333h-83.333zM1500 500h83.333v83.333H1500zM1583.333 500h83.333v83.333h-83.333z" transform="skewX(30) scale(1.2)"/><path fill="#484e5c11" d="M1666.667 500H1750v83.333h-83.333z" transform="skewX(30) scale(1.2)"/><path fill="none" d="M1750 500h83.333v83.333H1750zM1833.333 500h83.333v83.333h-83.333zM1916.667 500H2000v83.333h-83.333zM0 583.333h83.333v83.333H0zM83.333 583.333h83.333v83.333H83.333z" transform="skewX(30) scale(1.2)"/><path fill="#484e5c66" d="M166.667 583.333H250v83.333h-83.333z" transform="skewX(30) scale(1.2)"/><path fill="#484e5c24" d="M250 583.333h83.333v83.333H250z" transform="skewX(30) scale(1.2)"/><path fill="none" d="M333.333 583.333h83.333v83.333h-83.333zM416.667 583.333H500v83.333h-83.333z" transform="skewX(30) scale(1.2)"/><path fill="#484e5ccf" d="M500 583.333h83.333v83.333H500z" transform="skewX(30) scale(1.2)"/><path fill="none" d="M583.333 583.333h83.333v83.333h-83.333zM666.667 583.333H750v83.333h-83.333zM750 583.333h83.333v83.333H750zM833.333 583.333h83.333v83.333h-83.333zM916.667 583.333H1000v83.333h-83.333zM1000 583.333h83.333v83.333H1000zM1083.333 583.333h83.333v83.333h-83.333zM1166.667 583.333H1250v83.333h-83.333zM1250 583.333h83.333v83.333H1250zM1333.333 583.333h83.333v83.333h-83.333zM1416.667 583.333H1500v83.333h-83.333zM1500 583.333h83.333v83.333H1500zM1583.333 583.333h83.333v83.333h-83.333z" transform="skewX(30) scale(1.2)"/><path fill="#484e5c52" d="M1666.667 583.333H1750v83.333h-83.333z" transform="skewX(30) scale(1.2)"/><path fill="none" d="M1750 583.333h83.333v83.333H1750z" transform="skewX(30) scale(1.2)"/><path fill="#484e5cf1" d="M1833.333 583.333h83.333v83.333h-83.333z" transform="skewX(30) scale(1.2)"/><path fill="none" d="M1916.667 583.333H2000v83.333h-83.333zM0 666.667h83.333V750H0z" transform="skewX(30) scale(1.2)"/><path fill="#484e5c6b" d="M83.333 666.667h83.333V750H83.333z" transform="skewX(30) scale(1.2)"/><path fill="none" d="M166.667 666.667H250V750h-83.333zM250 666.667h83.333V750H250zM333.333 666.667h83.333V750h-83.333zM416.667 666.667H500V750h-83.333zM500 666.667h83.333V750H500zM583.333 666.667h83.333V750h-83.333zM666.667 666.667H750V750h-83.333zM750 666.667h83.333V750H750zM833.333 666.667h83.333V750h-83.333z" transform="skewX(30) scale(1.2)"/><path fill="#484e5c08" d="M916.667 666.667H1000V750h-83.333z" transform="skewX(30) scale(1.2)"/><path fill="none" d="M1000 666.667h83.333V750H1000zM1083.333 666.667h83.333V750h-83.333zM1166.667 666.667H1250V750h-83.333zM1250 666.667h83.333V750H1250z" transform="skewX(30) scale(1.2)"/><path fill="#484e5cce" d="M1333.333 666.667h83.333V750h-83.333z" transform="skewX(30) scale(1.2)"/><path fill="none" d="M1416.667 666.667H1500V750h-83.333zM1500 666.667h83.333V750H1500zM1583.333 666.667h83.333V750h-83.333z" transform="skewX(30) scale(1.2)"/><path fill="#484e5c6f" d="M1666.667 666.667H1750V750h-83.333z" transform="skewX(30) scale(1.2)"/><path fill="#484e5c5f" d="M1750 666.667h83.333V750H1750z" transform="skewX(30) scale(1.2)"/><path fill="#484e5c3b" d="M1833.333 666.667h83.333V750h-83.333z" transform="skewX(30) scale(1.2)"/><path fill="none" d="M1916.667 666.667H2000V750h-83.333zM0 750h83.333v83.333H0zM83.333 750h83.333v83.333H83.333zM166.667 750H250v83.333h-83.333zM250 750h83.333v83.333H250zM333.333 750h83.333v83.333h-83.333zM416.667 750H500v83.333h-83.333zM500 750h83.333v83.333H500z" transform="skewX(30) scale(1.2)"/><path fill="#484e5c53" d="M583.333 750h83.333v83.333h-83.333z" transform="skewX(30) scale(1.2)"/><path fill="none" d="M666.667 750H750v83.333h-83.333z" transform="skewX(30) scale(1.2)"/><path fill="#484e5c15" d="M750 750h83.333v83.333H750z" transform="skewX(30) scale(1.2)"/><path fill="none" d="M833.333 750h83.333v83.333h-83.333zM916.667 750H1000v83.333h-83.333z" transform="skewX(30) scale(1.2)"/><path fill="#484e5c3f" d="M1000 750h83.333v83.333H1000z" transform="skewX(30) scale(1.2)"/><path fill="#484e5c86" d="M1083.333 750h83.333v83.333h-83.333z" transform="skewX(30) scale(1.2)"/><path fill="none" d="M1166.667 750H1250v83.333h-83.333zM1250 750h83.333v83.333H1250zM1333.333 750h83.333v83.333h-83.333z" transform="skewX(30) scale(1.2)"/><path fill="#484e5cd7" d="M1416.667 750H1500v83.333h-83.333z" transform="skewX(30) scale(1.2)"/><path fill="none" d="M1500 750h83.333v83.333H1500z" transform="skewX(30) scale(1.2)"/><path fill="#484e5cb3" d="M1583.333 750h83.333v83.333h-83.333z" transform="skewX(30) scale(1.2)"/><path fill="none" d="M1666.667 750H1750v83.333h-83.333zM1750 750h83.333v83.333H1750zM1833.333 750h83.333v83.333h-83.333zM1916.667 750H2000v83.333h-83.333zM0 833.333h83.333v83.333H0zM83.333 833.333h83.333v83.333H83.333z" transform="skewX(30) scale(1.2)"/><path fill="#484e5c4c" d="M166.667 833.333H250v83.333h-83.333z" transform="skewX(30) scale(1.2)"/><path fill="none" d="M250 833.333h83.333v83.333H250zM333.333 833.333h83.333v83.333h-83.333zM416.667 833.333H500v83.333h-83.333zM500 833.333h83.333v83.333H500z" transform="skewX(30) scale(1.2)"/><path fill="#484e5cdb" d="M583.333 833.333h83.333v83.333h-83.333z" transform="skewX(30) scale(1.2)"/><path fill="none" d="M666.667 833.333H750v83.333h-83.333z" transform="skewX(30) scale(1.2)"/><path fill="#484e5ca7" d="M750 833.333h83.333v83.333H750z" transform="skewX(30) scale(1.2)"/><path fill="none" d="M833.333 833.333h83.333v83.333h-83.333zM916.667 833.333H1000v83.333h-83.333zM1000 833.333h83.333v83.333H1000z" transform="skewX(30) scale(1.2)"/><path fill="#484e5c39" d="M1083.333 833.333h83.333v83.333h-83.333z" transform="skewX(30) scale(1.2)"/><path fill="none" d="M1166.667 833.333H1250v83.333h-83.333zM1250 833.333h83.333v83.333H1250zM1333.333 833.333h83.333v83.333h-83.333zM1416.667 833.333H1500v83.333h-83.333zM1500 833.333h83.333v83.333H1500zM1583.333 833.333h83.333v83.333h-83.333z" transform="skewX(30) scale(1.2)"/><path fill="#484e5cc5" d="M1666.667 833.333H1750v83.333h-83.333z" transform="skewX(30) scale(1.2)"/><path fill="none" d="M1750 833.333h83.333v83.333H1750zM1833.333 833.333h83.333v83.333h-83.333zM1916.667 833.333H2000v83.333h-83.333zM0 916.667h83.333V1000H0zM83.333 916.667h83.333V1000H83.333zM166.667 916.667H250V1000h-83.333zM250 916.667h83.333V1000H250z" transform="skewX(30) scale(1.2)"/><path fill="#484e5c60" d="M333.333 916.667h83.333V1000h-83.333z" transform="skewX(30) scale(1.2)"/><path fill="none" d="M416.667 916.667H500V1000h-83.333z" transform="skewX(30) scale(1.2)"/><path fill="#484e5ce2" d="M500 916.667h83.333V1000H500z" transform="skewX(30) scale(1.2)"/><path fill="none" d="M583.333 916.667h83.333V1000h-83.333zM666.667 916.667H750V1000h-83.333z" transform="skewX(30) scale(1.2)"/><path fill="#484e5cd5" d="M750 916.667h83.333V1000H750z" transform="skewX(30) scale(1.2)"/><path fill="#484e5ca5" d="M833.333 916.667h83.333V1000h-83.333z" transform="skewX(30) scale(1.2)"/><path fill="none" d="M916.667 916.667H1000V1000h-83.333zM1000 916.667h83.333V1000H1000z" transform="skewX(30) scale(1.2)"/><path fill="#484e5c33" d="M1083.333 916.667h83.333V1000h-83.333z" transform="skewX(30) scale(1.2)"/><path fill="none" d="M1166.667 916.667H1250V1000h-83.333z" transform="skewX(30) scale(1.2)"/><path fill="#484e5ca0" d="M1250 916.667h83.333V1000H1250z" transform="skewX(30) scale(1.2)"/><path fill="#484e5cea" d="M1333.333 916.667h83.333V1000h-83.333z" transform="skewX(30) scale(1.2)"/><path fill="#484e5cec" d="M1416.667 916.667H1500V1000h-83.333z" transform="skewX(30) scale(1.2)"/><path fill="none" d="M1500 916.667h83.333V1000H1500zM1583.333 916.667h83.333V1000h-83.333zM1666.667 916.667H1750V1000h-83.333zM1750 916.667h83.333V1000H1750zM1833.333 916.667h83.333V1000h-83.333zM1916.667 916.667H2000V1000h-83.333zM0 1000h83.333v83.333H0z" transform="skewX(30) scale(1.2)"/><path fill="#484e5c89" d="M83.333 1000h83.333v83.333H83.333z" transform="skewX(30) scale(1.2)"/><path fill="none" d="M166.667 1000H250v83.333h-83.333zM250 1000h83.333v83.333H250zM333.333 1000h83.333v83.333h-83.333zM416.667 1000H500v83.333h-83.333zM500 1000h83.333v83.333H500zM583.333 1000h83.333v83.333h-83.333zM666.667 1000H750v83.333h-83.333z" transform="skewX(30) scale(1.2)"/><path fill="#484e5cba" d="M750 1000h83.333v83.333H750z" transform="skewX(30) scale(1.2)"/><path fill="none" d="M833.333 1000h83.333v83.333h-83.333z" transform="skewX(30) scale(1.2)"/><path fill="#484e5c4a" d="M916.667 1000H1000v83.333h-83.333z" transform="skewX(30) scale(1.2)"/><path fill="none" d="M1000 1000h83.333v83.333H1000zM1083.333 1000h83.333v83.333h-83.333zM1166.667 1000H1250v83.333h-83.333zM1250 1000h83.333v83.333H1250zM1333.333 1000h83.333v83.333h-83.333z" transform="skewX(30) scale(1.2)"/><path fill="#484e5c5a" d="M1416.667 1000H1500v83.333h-83.333z" transform="skewX(30) scale(1.2)"/><path fill="none" d="M1500 1000h83.333v83.333H1500z" transform="skewX(30) scale(1.2)"/><path fill="#484e5cd0" d="M1583.333 1000h83.333v83.333h-83.333z" transform="skewX(30) scale(1.2)"/><path fill="none" d="M1666.667 1000H1750v83.333h-83.333z" transform="skewX(30) scale(1.2)"/><path fill="#484e5cfe" d="M1750 1000h83.333v83.333H1750z" transform="skewX(30) scale(1.2)"/><path fill="none" d="M1833.333 1000h83.333v83.333h-83.333z" transform="skewX(30) scale(1.2)"/><path fill="#484e5ca5" d="M1916.667 1000H2000v83.333h-83.333z" transform="skewX(30) scale(1.2)"/><path fill="none" d="M0 1083.333h83.333v83.333H0z" transform="skewX(30) scale(1.2)"/><path fill="#484e5cb9" d="M83.333 1083.333h83.333v83.333H83.333z" transform="skewX(30) scale(1.2)"/><path fill="none" d="M166.667 1083.333H250v83.333h-83.333zM250 1083.333h83.333v83.333H250zM333.333 1083.333h83.333v83.333h-83.333zM416.667 1083.333H500v83.333h-83.333zM500 1083.333h83.333v83.333H500z" transform="skewX(30) scale(1.2)"/><path fill="#484e5cce" d="M583.333 1083.333h83.333v83.333h-83.333z" transform="skewX(30) scale(1.2)"/><path fill="#484e5c30" d="M666.667 1083.333H750v83.333h-83.333z" transform="skewX(30) scale(1.2)"/><path fill="#484e5ca0" d="M750 1083.333h83.333v83.333H750z" transform="skewX(30) scale(1.2)"/><path fill="#484e5c7e" d="M833.333 1083.333h83.333v83.333h-83.333z" transform="skewX(30) scale(1.2)"/><path fill="none" d="M916.667 1083.333H1000v83.333h-83.333zM1000 1083.333h83.333v83.333H1000zM1083.333 1083.333h83.333v83.333h-83.333zM1166.667 1083.333H1250v83.333h-83.333z" transform="skewX(30) scale(1.2)"/><path fill="#484e5cf6" d="M1250 1083.333h83.333v83.333H1250z" transform="skewX(30) scale(1.2)"/><path fill="none" d="M1333.333 1083.333h83.333v83.333h-83.333zM1416.667 1083.333H1500v83.333h-83.333zM1500 1083.333h83.333v83.333H1500z" transform="skewX(30) scale(1.2)"/><path fill="#484e5c18" d="M1583.333 1083.333h83.333v83.333h-83.333z" transform="skewX(30) scale(1.2)"/><path fill="none" d="M1666.667 1083.333H1750v83.333h-83.333z" transform="skewX(30) scale(1.2)"/><path fill="#484e5cf0" d="M1750 1083.333h83.333v83.333H1750z" transform="skewX(30) scale(1.2)"/><path fill="none" d="M1833.333 1083.333h83.333v83.333h-83.333zM1916.667 1083.333H2000v83.333h-83.333z" transform="skewX(30) scale(1.2)"/><path fill="#484e5c97" d="M0 1166.667h83.333V1250H0z" transform="skewX(30) scale(1.2)"/><path fill="none" d="M83.333 1166.667h83.333V1250H83.333zM166.667 1166.667H250V1250h-83.333zM250 1166.667h83.333V1250H250z" transform="skewX(30) scale(1.2)"/><path fill="#484e5c45" d="M333.333 1166.667h83.333V1250h-83.333z" transform="skewX(30) scale(1.2)"/><path fill="#484e5c5d" d="M416.667 1166.667H500V1250h-83.333z" transform="skewX(30) scale(1.2)"/><path fill="none" d="M500 1166.667h83.333V1250H500zM583.333 1166.667h83.333V1250h-83.333z" transform="skewX(30) scale(1.2)"/><path fill="#484e5cea" d="M666.667 1166.667H750V1250h-83.333z" transform="skewX(30) scale(1.2)"/><path fill="#484e5cac" d="M750 1166.667h83.333V1250H750z" transform="skewX(30) scale(1.2)"/><path fill="none" d="M833.333 1166.667h83.333V1250h-83.333zM916.667 1166.667H1000V1250h-83.333zM1000 1166.667h83.333V1250H1000zM1083.333 1166.667h83.333V1250h-83.333z" transform="skewX(30) scale(1.2)"/><path fill="#484e5cf7" d="M1166.667 1166.667H1250V1250h-83.333z" transform="skewX(30) scale(1.2)"/><path fill="none" d="M1250 1166.667h83.333V1250H1250zM1333.333 1166.667h83.333V1250h-83.333z" transform="skewX(30) scale(1.2)"/><path fill="#484e5c14" d="M1416.667 1166.667H1500V1250h-83.333z" transform="skewX(30) scale(1.2)"/><path fill="none" d="M1500 1166.667h83.333V1250H1500zM1583.333 1166.667h83.333V1250h-83.333zM1666.667 1166.667H1750V1250h-83.333zM1750 1166.667h83.333V1250H1750zM1833.333 1166.667h83.333V1250h-83.333zM1916.667 1166.667H2000V1250h-83.333z" transform="skewX(30) scale(1.2)"/><path fill="#484e5c82" d="M0 1250h83.333v83.333H0z" transform="skewX(30) scale(1.2)"/><path fill="none" d="M83.333 1250h83.333v83.333H83.333zM166.667 1250H250v83.333h-83.333zM250 1250h83.333v83.333H250zM333.333 1250h83.333v83.333h-83.333zM416.667 1250H500v83.333h-83.333z" transform="skewX(30) scale(1.2)"/><path fill="#484e5c05" d="M500 1250h83.333v83.333H500z" transform="skewX(30) scale(1.2)"/><path fill="none" d="M583.333 1250h83.333v83.333h-83.333zM666.667 1250H750v83.333h-83.333z" transform="skewX(30) scale(1.2)"/><path fill="#484e5cdb" d="M750 1250h83.333v83.333H750z" transform="skewX(30) scale(1.2)"/><path fill="#484e5c32" d="M833.333 1250h83.333v83.333h-83.333z" transform="skewX(30) scale(1.2)"/><path fill="none" d="M916.667 1250H1000v83.333h-83.333z" transform="skewX(30) scale(1.2)"/><path fill="#484e5cc4" d="M1000 1250h83.333v83.333H1000z" transform="skewX(30) scale(1.2)"/><path fill="none" d="M1083.333 1250h83.333v83.333h-83.333zM1166.667 1250H1250v83.333h-83.333zM1250 1250h83.333v83.333H1250zM1333.333 1250h83.333v83.333h-83.333z" transform="skewX(30) scale(1.2)"/><path fill="#484e5cc4" d="M1416.667 1250H1500v83.333h-83.333z" transform="skewX(30) scale(1.2)"/><path fill="#484e5c75" d="M1500 1250h83.333v83.333H1500z" transform="skewX(30) scale(1.2)"/><path fill="none" d="M1583.333 1250h83.333v83.333h-83.333zM1666.667 1250H1750v83.333h-83.333zM1750 1250h83.333v83.333H1750z" transform="skewX(30) scale(1.2)"/><path fill="#484e5ce7" d="M1833.333 1250h83.333v83.333h-83.333z" transform="skewX(30) scale(1.2)"/><path fill="none" d="M1916.667 1250H2000v83.333h-83.333z" transform="skewX(30) scale(1.2)"/><path fill="#484e5c19" d="M0 1333.333h83.333v83.333H0z" transform="skewX(30) scale(1.2)"/><path fill="none" d="M83.333 1333.333h83.333v83.333H83.333zM166.667 1333.333H250v83.333h-83.333zM250 1333.333h83.333v83.333H250zM333.333 1333.333h83.333v83.333h-83.333zM416.667 1333.333H500v83.333h-83.333zM500 1333.333h83.333v83.333H500zM583.333 1333.333h83.333v83.333h-83.333z" transform="skewX(30) scale(1.2)"/><path fill="#484e5c9f" d="M666.667 1333.333H750v83.333h-83.333z" transform="skewX(30) scale(1.2)"/><path fill="none" d="M750 1333.333h83.333v83.333H750zM833.333 1333.333h83.333v83.333h-83.333zM916.667 1333.333H1000v83.333h-83.333z" transform="skewX(30) scale(1.2)"/><path fill="#484e5cbb" d="M1000 1333.333h83.333v83.333H1000z" transform="skewX(30) scale(1.2)"/><path fill="#484e5ced" d="M1083.333 1333.333h83.333v83.333h-83.333z" transform="skewX(30) scale(1.2)"/><path fill="none" d="M1166.667 1333.333H1250v83.333h-83.333z" transform="skewX(30) scale(1.2)"/><path fill="#484e5ce3" d="M1250 1333.333h83.333v83.333H1250z" transform="skewX(30) scale(1.2)"/><path fill="none" d="M1333.333 1333.333h83.333v83.333h-83.333z" transform="skewX(30) scale(1.2)"/><path fill="#484e5c13" d="M1416.667 1333.333H1500v83.333h-83.333z" transform="skewX(30) scale(1.2)"/><path fill="none" d="M1500 1333.333h83.333v83.333H1500zM1583.333 1333.333h83.333v83.333h-83.333z" transform="skewX(30) scale(1.2)"/><path fill="#484e5c51" d="M1666.667 1333.333H1750v83.333h-83.333z" transform="skewX(30) scale(1.2)"/><path fill="#484e5c12" d="M1750 1333.333h83.333v83.333H1750z" transform="skewX(30) scale(1.2)"/><path fill="#484e5c2a" d="M1833.333 1333.333h83.333v83.333h-83.333z" transform="skewX(30) scale(1.2)"/><path fill="#484e5cd7" d="M1916.667 1333.333H2000v83.333h-83.333z" transform="skewX(30) scale(1.2)"/></g><defs><radialGradient id="a"><stop offset="0" stop-color="#fff" stop-opacity=".826"/><stop offset="85.5%" stop-color="#fff" stop-opacity="0"/></radialGradient></defs></svg>